{
	"asset":{
		"copyright":"santa_cloud_token",
		"generator":"Khronos glTF Blender I/O v4.0.44",
		"version":"2.0"
	},
	"extensionsUsed":[
		"EXT_texture_webp"
	],
	"scene":0,
	"scenes":[
		{
			"extras":{
				"assets used":{
					"1e5fd9e7-7527-4a28-b671-668bed7e03fc":{
						"addonVersion":"3.11.0",
						"assetBaseId":"1e5fd9e7-7527-4a28-b671-668bed7e03fc",
						"assetType":"material",
						"author":{
							"aboutMe":"Hello, i'm Vasilis from Greece, an individual 3d modeler since 2019. I'm using blender at my free time and have some fun creating models and materials. If you like to support me please consider to rate my assets. Thank you very much.",
							"aboutMeUrl":"https://www.artstation.com/chroma3d",
							"avatar128":"/avatar-redirect/23a55d33-1f80-42d9-ae43-50d9d0551206/128/",
							"firstName":"chroma",
							"fullName":"chroma 3D",
							"gravatarHash":"d093202b38f3007b1a6d5ae96364bdae",
							"id":"8575",
							"lastName":"3D",
							"socialNetworks":[
								{
									"socialNetwork":{
										"icon":"<i class=\"fab fa-artstation\" title=\"ArtStation\"></i><span class=\"sr-only\">ArtStation</span>",
										"name":"ArtStation",
										"order":5
									},
									"url":"https://www.artstation.com/chroma3d"
								}
							]
						},
						"available_resolutions":[
							512,
							1024,
							2048
						],
						"canDownload":true,
						"canDownloadError":true,
						"category":"fabric",
						"created":"2024-03-10T11:58:29.407816+01:00",
						"description":"A red carpet material with 4K PBR textures",
						"dictParameters":{
							"condition":"new",
							"engine":"cycles",
							"materialStyle":"realistic",
							"megapixels":80,
							"nodeCount":16,
							"pbrType":"metallic",
							"procedural":false,
							"purePbr":true,
							"sexualizedContent":false,
							"shaders":[
								"principled"
							],
							"textureCount":5,
							"textureResolutionMax":4096,
							"textureResolutionMin":4096,
							"textureSizeMeters":1,
							"uv":true
						},
						"displayName":"Red Carpet",
						"downloaded":0,
						"files":[
							{
								"created":"2024-03-10T12:00:18.048588+01:00",
								"downloadUrl":"https://www.blenderkit.com/api/v1/downloads/341416/",
								"fileThumbnail":"",
								"fileThumbnailLarge":"",
								"fileType":"blend",
								"filename":"",
								"modified":"2024-03-12T08:25:31.405973+01:00",
								"resolution":0,
								"url":""
							},
							{
								"created":"2024-03-10T16:52:25.851765+01:00",
								"downloadUrl":"https://www.blenderkit.com/api/v1/downloads/341584/",
								"fileThumbnail":"",
								"fileThumbnailLarge":"",
								"fileType":"resolution_0_5K",
								"filename":"",
								"modified":"2024-03-12T08:25:31.445264+01:00",
								"resolution":0,
								"url":""
							},
							{
								"created":"2024-03-10T16:52:24.456965+01:00",
								"downloadUrl":"https://www.blenderkit.com/api/v1/downloads/341583/",
								"fileThumbnail":"",
								"fileThumbnailLarge":"",
								"fileType":"resolution_1K",
								"filename":"",
								"modified":"2024-03-12T08:25:31.467452+01:00",
								"resolution":0,
								"url":""
							},
							{
								"created":"2024-03-10T16:52:22.969175+01:00",
								"downloadUrl":"https://www.blenderkit.com/api/v1/downloads/341582/",
								"fileThumbnail":"",
								"fileThumbnailLarge":"",
								"fileType":"resolution_2K",
								"filename":"",
								"modified":"2024-03-12T08:25:31.488083+01:00",
								"resolution":0,
								"url":"https://public.blenderkit.com/public-assets/assets/88dae593ae5e4742a519fac344f35f9c/files/resolution_2K_0f56e462-dc45-43d4-87ba-3ce2ec5223bf.blend",
								"file_name":"C:\\Users\\rodri\\blenderkit_data\\materials\\red-carpet_88dae593-ae5e-4742-a519-fac344f35f9c\\red-carpet_2K_0f56e462-dc45-43d4-87ba-3ce2ec5223bf.blend"
							},
							{
								"created":"2024-03-10T11:59:11.926011+01:00",
								"downloadUrl":"https://www.blenderkit.com/api/v1/downloads/341415/",
								"fileThumbnail":"https://public.blenderkit.com/thumbnails/assets/88dae593ae5e4742a519fac344f35f9c/files/thumbnail_36a62ba8-e4dc-42f6-92b2-bd0f3ed6baff.png.96x96_q85_crop-%2C.png",
								"fileThumbnailLarge":"https://public.blenderkit.com/thumbnails/assets/88dae593ae5e4742a519fac344f35f9c/files/thumbnail_36a62ba8-e4dc-42f6-92b2-bd0f3ed6baff.png.1024x1024_q85_crop-%2C.png",
								"fileType":"thumbnail",
								"filename":"",
								"modified":"2024-03-12T08:25:31.509807+01:00",
								"resolution":0,
								"url":""
							}
						],
						"filesSize":15866,
						"id":"88dae593-ae5e-4742-a519-fac344f35f9c",
						"isFree":true,
						"isPrivate":false,
						"lastBlendUpload":"2024-03-10T11:00:18.048588+00:00",
						"lastGltfUpload":"",
						"lastResolutionUpload":"2024-03-10T15:52:25.851765+00:00",
						"lastThumbnailUpload":"2024-03-10T10:59:11.926011+00:00",
						"lastUserInteraction":"2024-03-10T12:00:18.552486+01:00",
						"lastVideoUpload":"",
						"lastZipFileUpload":"",
						"license":"royalty_free",
						"max_resolution":2048,
						"name":"Red Carpet",
						"pk":83518,
						"ratingsAverage":{
							"bookmarks":0.9915966386554622,
							"competition-2022-votes":null,
							"quality":9,
							"virtualPrice":null,
							"workingHours":2.550000000745058
						},
						"ratingsCount":{
							"bookmarks":119,
							"competition-2022-votes":0,
							"quality":3,
							"virtualPrice":0,
							"workingHours":2
						},
						"ratingsMedian":{
							"bookmarks":1,
							"competition-2022-votes":null,
							"quality":10,
							"virtualPrice":null,
							"workingHours":2.550000000745058
						},
						"ratingsSum":{
							"bookmarks":118,
							"competition-2022-votes":null,
							"quality":27,
							"score":229.50000006705523,
							"virtualPrice":null,
							"workingHours":5.100000001490116
						},
						"score":229.50000006705523,
						"showMarketingLabels":true,
						"sourceAppName":"blender",
						"sourceAppVersion":"3.6.5",
						"tags":[
							"floor",
							"wall to wall",
							"PBR",
							"4K",
							"red",
							"carpet"
						],
						"texture_size_meters":1,
						"thumbnail":"thumbnail_36a62ba8-e4dc-42f6-92b2-bd0f3ed6baff.png.512x512_q85_crop-%2C.png.webp",
						"thumbnailLargeUrl":"https://public.blenderkit.com/thumbnails/assets/88dae593ae5e4742a519fac344f35f9c/files/thumbnail_36a62ba8-e4dc-42f6-92b2-bd0f3ed6baff.png.1024x1024_q85_crop-%2C.png",
						"thumbnailLargeUrlNonsquared":"https://public.blenderkit.com/thumbnails/assets/88dae593ae5e4742a519fac344f35f9c/files/thumbnail_36a62ba8-e4dc-42f6-92b2-bd0f3ed6baff.png.1024x1024_q85.png",
						"thumbnailLargeUrlNonsquaredWebp":"https://public.blenderkit.com/thumbnails/assets/88dae593ae5e4742a519fac344f35f9c/files/thumbnail_36a62ba8-e4dc-42f6-92b2-bd0f3ed6baff.png.1024x1024_q85.png.webp?webp_generated=1710228335",
						"thumbnailLargeUrlWebp":"https://public.blenderkit.com/thumbnails/assets/88dae593ae5e4742a519fac344f35f9c/files/thumbnail_36a62ba8-e4dc-42f6-92b2-bd0f3ed6baff.png.1024x1024_q85_crop-%2C.png.webp?webp_generated=1710228335",
						"thumbnailMiddleUrl":"https://public.blenderkit.com/thumbnails/assets/88dae593ae5e4742a519fac344f35f9c/files/thumbnail_36a62ba8-e4dc-42f6-92b2-bd0f3ed6baff.png.512x512_q85_crop-%2C.png",
						"thumbnailMiddleUrlNonsquared":"https://public.blenderkit.com/thumbnails/assets/88dae593ae5e4742a519fac344f35f9c/files/thumbnail_36a62ba8-e4dc-42f6-92b2-bd0f3ed6baff.png.512x512_q85.png",
						"thumbnailMiddleUrlNonsquaredWebp":"https://public.blenderkit.com/thumbnails/assets/88dae593ae5e4742a519fac344f35f9c/files/thumbnail_36a62ba8-e4dc-42f6-92b2-bd0f3ed6baff.png.512x512_q85.png.webp?webp_generated=1710228335",
						"thumbnailMiddleUrlWebp":"https://public.blenderkit.com/thumbnails/assets/88dae593ae5e4742a519fac344f35f9c/files/thumbnail_36a62ba8-e4dc-42f6-92b2-bd0f3ed6baff.png.512x512_q85_crop-%2C.png.webp?webp_generated=1710228335",
						"thumbnailSmallUrl":"https://public.blenderkit.com/thumbnails/assets/88dae593ae5e4742a519fac344f35f9c/files/thumbnail_36a62ba8-e4dc-42f6-92b2-bd0f3ed6baff.png.256x256_q85_crop-%2C.png",
						"thumbnailSmallUrlNonsquared":"https://public.blenderkit.com/thumbnails/assets/88dae593ae5e4742a519fac344f35f9c/files/thumbnail_36a62ba8-e4dc-42f6-92b2-bd0f3ed6baff.png.256x256_q85.png",
						"thumbnailSmallUrlNonsquaredWebp":"https://public.blenderkit.com/thumbnails/assets/88dae593ae5e4742a519fac344f35f9c/files/thumbnail_36a62ba8-e4dc-42f6-92b2-bd0f3ed6baff.png.256x256_q85.png.webp?webp_generated=1710228335",
						"thumbnailSmallUrlWebp":"https://public.blenderkit.com/thumbnails/assets/88dae593ae5e4742a519fac344f35f9c/files/thumbnail_36a62ba8-e4dc-42f6-92b2-bd0f3ed6baff.png.256x256_q85_crop-%2C.png.webp?webp_generated=1710228335",
						"thumbnailXlargeUrl":"https://public.blenderkit.com/thumbnails/assets/88dae593ae5e4742a519fac344f35f9c/files/thumbnail_36a62ba8-e4dc-42f6-92b2-bd0f3ed6baff.png.2048x2048_q85_crop-%2C.png",
						"thumbnailXlargeUrlNonsquared":"https://public.blenderkit.com/thumbnails/assets/88dae593ae5e4742a519fac344f35f9c/files/thumbnail_36a62ba8-e4dc-42f6-92b2-bd0f3ed6baff.png.2048x2048_q85.png",
						"thumbnailXlargeUrlNonsquaredWebp":"https://public.blenderkit.com/thumbnails/assets/88dae593ae5e4742a519fac344f35f9c/files/thumbnail_36a62ba8-e4dc-42f6-92b2-bd0f3ed6baff.png.2048x2048_q85.png.webp?webp_generated=1710228335",
						"thumbnailXlargeUrlWebp":"https://public.blenderkit.com/thumbnails/assets/88dae593ae5e4742a519fac344f35f9c/files/thumbnail_36a62ba8-e4dc-42f6-92b2-bd0f3ed6baff.png.2048x2048_q85_crop-%2C.png.webp?webp_generated=1710228335",
						"thumbnail_small":"thumbnail_36a62ba8-e4dc-42f6-92b2-bd0f3ed6baff.png.256x256_q85_crop-%2C.png.webp",
						"tooltip_data":{
							"aname":"Red Carpet",
							"author_text":"by chroma 3D",
							"quality":"9"
						},
						"url":"https://www.blenderkit.com/api/v1/assets/88dae593-ae5e-4742-a519-fac344f35f9c/",
						"verificationStatus":"validated",
						"versionNumber":1,
						"webpGeneratedTimestamp":1710228335,
						"resolution":"resolution_2K"
					},
					"6a26bd99-df38-4632-9bdf-89ff017734ec":{
						"addonVersion":"3.9.0",
						"assetBaseId":"6a26bd99-df38-4632-9bdf-89ff017734ec",
						"assetType":"material",
						"author":{
							"aboutMe":"I am a Blender animator, modeller as well as a digital imaging specialist (Photoshop, since 1998).",
							"aboutMeUrl":"https://www.turningturnip.co.uk",
							"avatar128":"/avatar-redirect/f27f13f1-fabb-4c68-a841-9fda3c707246/128/",
							"firstName":"James",
							"fullName":"James Middleton",
							"gravatarHash":"08d08063b99022fda90e8477a0b502f5",
							"id":"33950",
							"lastName":"Middleton",
							"socialNetworks":[
								{
									"socialNetwork":{
										"icon":"<i class=\"fab fa-youtube\" title=\"YouTube\"></i><span class=\"sr-only\">YouTube</span>",
										"name":"YouTube",
										"order":1
									},
									"url":"https://www.youtube.com/@blenderbones"
								}
							]
						},
						"available_resolutions":[
							512,
							1024,
							2048
						],
						"canDownload":true,
						"canDownloadError":true,
						"category":"floor",
						"created":"2024-07-15T10:03:30.815190+02:00",
						"description":"A white, soft fabric textile in PBR. Cloth texture complete with tiling. Soft Fabric - White 71",
						"dictParameters":{
							"condition":"new",
							"engine":"cycles",
							"imageAltTextGen4v":"High-resolution soft white fabric PBR material for 3D floor texturing, showing fine cloth details.",
							"materialStyle":"realistic",
							"megapixels":12,
							"nodeCount":11,
							"pbrType":"metallic",
							"procedural":false,
							"purePbr":true,
							"sexualizedContent":false,
							"shaders":[
								"principled"
							],
							"textureCount":4,
							"textureResolutionMax":2048,
							"textureResolutionMin":512,
							"textureSizeMeters":0.20000000298023224,
							"uv":false
						},
						"displayName":"White Fabric",
						"downloaded":0,
						"files":[
							{
								"created":"2024-07-15T10:03:59.621244+02:00",
								"downloadUrl":"https://www.blenderkit.com/api/v1/downloads/422318/",
								"fileThumbnail":"",
								"fileThumbnailLarge":"",
								"fileType":"blend",
								"filename":"",
								"modified":"2024-09-05T21:08:33.991802+02:00",
								"resolution":0,
								"url":""
							},
							{
								"created":"2024-07-15T10:19:24.061050+02:00",
								"downloadUrl":"https://www.blenderkit.com/api/v1/downloads/422361/",
								"fileThumbnail":"",
								"fileThumbnailLarge":"",
								"fileType":"resolution_0_5K",
								"filename":"",
								"modified":"2024-09-05T21:08:34.030596+02:00",
								"resolution":0,
								"url":""
							},
							{
								"created":"2024-07-15T10:19:22.815198+02:00",
								"downloadUrl":"https://www.blenderkit.com/api/v1/downloads/422359/",
								"fileThumbnail":"",
								"fileThumbnailLarge":"",
								"fileType":"resolution_1K",
								"filename":"",
								"modified":"2024-09-05T21:08:34.052268+02:00",
								"resolution":0,
								"url":""
							},
							{
								"created":"2024-07-15T10:19:21.358056+02:00",
								"downloadUrl":"https://www.blenderkit.com/api/v1/downloads/422358/",
								"fileThumbnail":"",
								"fileThumbnailLarge":"",
								"fileType":"resolution_2K",
								"filename":"",
								"modified":"2024-09-05T21:08:34.071070+02:00",
								"resolution":0,
								"url":"https://public.blenderkit.com/public-assets/assets/b90caeee43fc4a889994deb74cfc3b7e/files/resolution_2K_ebcc3958-d3b7-4736-b312-7fb6a86d7510.blend",
								"file_name":"C:\\Users\\rodri\\blenderkit_data\\materials\\soft-fabric-whit_b90caeee-43fc-4a88-9994-deb74cfc3b7e\\soft-fabric-white-71_2K_ebcc3958-d3b7-4736-b312-7fb6a86d7510.blend"
							},
							{
								"created":"2024-07-15T10:03:37.852890+02:00",
								"downloadUrl":"https://www.blenderkit.com/api/v1/downloads/422316/",
								"fileThumbnail":"https://public.blenderkit.com/thumbnails/assets/b90caeee43fc4a889994deb74cfc3b7e/files/thumbnail_8d5ed94f-bd9a-4ab9-b32c-8a24315a80ec.png.96x96_q85_crop-%2C.png",
								"fileThumbnailLarge":"https://public.blenderkit.com/thumbnails/assets/b90caeee43fc4a889994deb74cfc3b7e/files/thumbnail_8d5ed94f-bd9a-4ab9-b32c-8a24315a80ec.png.1024x1024_q85_crop-%2C.png",
								"fileType":"thumbnail",
								"filename":"",
								"modified":"2024-09-05T21:08:34.091439+02:00",
								"resolution":0,
								"url":""
							}
						],
						"filesSize":23591,
						"id":"b90caeee-43fc-4a88-9994-deb74cfc3b7e",
						"isFree":true,
						"isPrivate":false,
						"lastBlendUpload":"2024-07-15T08:03:59.621244+00:00",
						"lastGltfUpload":"",
						"lastResolutionUpload":"2024-07-15T08:19:24.061050+00:00",
						"lastThumbnailUpload":"2024-07-15T08:03:37.852890+00:00",
						"lastUserInteraction":"2024-07-15T10:04:00.033466+02:00",
						"lastVideoUpload":"",
						"lastZipFileUpload":"",
						"license":"royalty_free",
						"max_resolution":2048,
						"name":"Soft Fabric - White 71",
						"pk":100002,
						"ratingsAverage":{
							"bookmarks":1,
							"competition-2022-votes":null,
							"quality":8,
							"virtualPrice":null,
							"workingHours":0.5
						},
						"ratingsCount":{
							"bookmarks":71,
							"competition-2022-votes":0,
							"quality":1,
							"virtualPrice":0,
							"workingHours":1
						},
						"ratingsMedian":{
							"bookmarks":1,
							"competition-2022-votes":null,
							"quality":8,
							"virtualPrice":null,
							"workingHours":0.5
						},
						"ratingsSum":{
							"bookmarks":71,
							"competition-2022-votes":null,
							"quality":8,
							"score":40,
							"virtualPrice":null,
							"workingHours":0.5
						},
						"score":40,
						"showMarketingLabels":true,
						"sourceAppName":"blender",
						"sourceAppVersion":"4.1.1",
						"tags":[
							"fabric",
							"cloth",
							"white",
							"textile",
							"texture",
							"pbr"
						],
						"texture_size_meters":0.20000000298023224,
						"thumbnail":"thumbnail_8d5ed94f-bd9a-4ab9-b32c-8a24315a80ec.png.512x512_q85_crop-%2C.png.webp",
						"thumbnailLargeUrl":"https://public.blenderkit.com/thumbnails/assets/b90caeee43fc4a889994deb74cfc3b7e/files/thumbnail_8d5ed94f-bd9a-4ab9-b32c-8a24315a80ec.png.1024x1024_q85_crop-%2C.png",
						"thumbnailLargeUrlNonsquared":"https://public.blenderkit.com/thumbnails/assets/b90caeee43fc4a889994deb74cfc3b7e/files/thumbnail_8d5ed94f-bd9a-4ab9-b32c-8a24315a80ec.png.1024x1024_q85.png",
						"thumbnailLargeUrlNonsquaredWebp":"https://public.blenderkit.com/thumbnails/assets/b90caeee43fc4a889994deb74cfc3b7e/files/thumbnail_8d5ed94f-bd9a-4ab9-b32c-8a24315a80ec.png.1024x1024_q85.png.webp?webp_generated=1725563317",
						"thumbnailLargeUrlWebp":"https://public.blenderkit.com/thumbnails/assets/b90caeee43fc4a889994deb74cfc3b7e/files/thumbnail_8d5ed94f-bd9a-4ab9-b32c-8a24315a80ec.png.1024x1024_q85_crop-%2C.png.webp?webp_generated=1725563317",
						"thumbnailMiddleUrl":"https://public.blenderkit.com/thumbnails/assets/b90caeee43fc4a889994deb74cfc3b7e/files/thumbnail_8d5ed94f-bd9a-4ab9-b32c-8a24315a80ec.png.512x512_q85_crop-%2C.png",
						"thumbnailMiddleUrlNonsquared":"https://public.blenderkit.com/thumbnails/assets/b90caeee43fc4a889994deb74cfc3b7e/files/thumbnail_8d5ed94f-bd9a-4ab9-b32c-8a24315a80ec.png.512x512_q85.png",
						"thumbnailMiddleUrlNonsquaredWebp":"https://public.blenderkit.com/thumbnails/assets/b90caeee43fc4a889994deb74cfc3b7e/files/thumbnail_8d5ed94f-bd9a-4ab9-b32c-8a24315a80ec.png.512x512_q85.png.webp?webp_generated=1725563317",
						"thumbnailMiddleUrlWebp":"https://public.blenderkit.com/thumbnails/assets/b90caeee43fc4a889994deb74cfc3b7e/files/thumbnail_8d5ed94f-bd9a-4ab9-b32c-8a24315a80ec.png.512x512_q85_crop-%2C.png.webp?webp_generated=1725563317",
						"thumbnailSmallUrl":"https://public.blenderkit.com/thumbnails/assets/b90caeee43fc4a889994deb74cfc3b7e/files/thumbnail_8d5ed94f-bd9a-4ab9-b32c-8a24315a80ec.png.256x256_q85_crop-%2C.png",
						"thumbnailSmallUrlNonsquared":"https://public.blenderkit.com/thumbnails/assets/b90caeee43fc4a889994deb74cfc3b7e/files/thumbnail_8d5ed94f-bd9a-4ab9-b32c-8a24315a80ec.png.256x256_q85.png",
						"thumbnailSmallUrlNonsquaredWebp":"https://public.blenderkit.com/thumbnails/assets/b90caeee43fc4a889994deb74cfc3b7e/files/thumbnail_8d5ed94f-bd9a-4ab9-b32c-8a24315a80ec.png.256x256_q85.png.webp?webp_generated=1725563317",
						"thumbnailSmallUrlWebp":"https://public.blenderkit.com/thumbnails/assets/b90caeee43fc4a889994deb74cfc3b7e/files/thumbnail_8d5ed94f-bd9a-4ab9-b32c-8a24315a80ec.png.256x256_q85_crop-%2C.png.webp?webp_generated=1725563317",
						"thumbnailXlargeUrl":"https://public.blenderkit.com/thumbnails/assets/b90caeee43fc4a889994deb74cfc3b7e/files/thumbnail_8d5ed94f-bd9a-4ab9-b32c-8a24315a80ec.png.2048x2048_q85_crop-%2C.png",
						"thumbnailXlargeUrlNonsquared":"https://public.blenderkit.com/thumbnails/assets/b90caeee43fc4a889994deb74cfc3b7e/files/thumbnail_8d5ed94f-bd9a-4ab9-b32c-8a24315a80ec.png.2048x2048_q85.png",
						"thumbnailXlargeUrlNonsquaredWebp":"https://public.blenderkit.com/thumbnails/assets/b90caeee43fc4a889994deb74cfc3b7e/files/thumbnail_8d5ed94f-bd9a-4ab9-b32c-8a24315a80ec.png.2048x2048_q85.png.webp?webp_generated=1725563317",
						"thumbnailXlargeUrlWebp":"https://public.blenderkit.com/thumbnails/assets/b90caeee43fc4a889994deb74cfc3b7e/files/thumbnail_8d5ed94f-bd9a-4ab9-b32c-8a24315a80ec.png.2048x2048_q85_crop-%2C.png.webp?webp_generated=1725563317",
						"thumbnail_small":"thumbnail_8d5ed94f-bd9a-4ab9-b32c-8a24315a80ec.png.256x256_q85_crop-%2C.png.webp",
						"tooltip_data":{
							"aname":"White Fabric",
							"author_text":"by James Middleton",
							"quality":"8"
						},
						"url":"https://www.blenderkit.com/api/v1/assets/b90caeee-43fc-4a88-9994-deb74cfc3b7e/",
						"verificationStatus":"validated",
						"versionNumber":1,
						"webpGeneratedTimestamp":1725563317,
						"resolution":"resolution_2K"
					}
				},
				"uuid":"ebeee777-f58f-4aab-8189-ccc512fa93d0",
				"previews_dir":"C:\\Users\\rodri\\Desktop\\HDRi\\",
				"previews_list":[
					"061_hdrmaps_com_free.exr",
					"071_hdrmaps_com_free.exr",
					"133_hdrmaps_com_free.exr",
					"139_hdrmaps_com_free.exr",
					"DayEnvironmentHDRI032_4K-HDR.exr",
					"DaySkyHDRI021A_4K-HDR.exr",
					"DaySkyHDRI022B_4K-HDR.exr",
					"DaySkyHDRI032A_4K-HDR.exr",
					"EveningSkyHDRI007A_2K-HDR.exr",
					"EveningSkyHDRI017A_4K-HDR.exr",
					"EveningSkyHDRI019A_4K-HDR.exr",
					"IndoorEnvironmentHDRI003_4K-HDR.exr",
					"MorningSkyHDRI002B_4K-HDR.exr",
					"NightEnvironmentHDRI004_4K-HDR.exr",
					"vignaioli_night_4k.exr"
				],
				"sub_dirs":0,
				"recursive_search":0,
				"prev":4,
				"assets reported":{
					"1e5fd9e7-7527-4a28-b671-668bed7e03fc":true,
					"6a26bd99-df38-4632-9bdf-89ff017734ec":true
				}
			},
			"name":"Scene",
			"nodes":[
				0
			]
		}
	],
	"nodes":[
		{
			"mesh":0,
			"name":"Esfera",
			"scale":[
				0.08740287274122238,
				0.08740287274122238,
				0.08740287274122238
			],
			"translation":[
				0.008265018463134766,
				0.3914825916290283,
				0.01638181507587433
			]
		}
	],
	"materials":[
		{
			"doubleSided":true,
			"name":"Material.012",
			"pbrMetallicRoughness":{
				"baseColorTexture":{
					"index":0
				},
				"metallicFactor":0,
				"roughnessFactor":0.5
			}
		}
	],
	"meshes":[
		{
			"name":"Esfera",
			"primitives":[
				{
					"attributes":{
						"POSITION":0,
						"NORMAL":1,
						"TEXCOORD_0":2
					},
					"indices":3,
					"material":0
				}
			]
		}
	],
	"textures":[
		{
			"extensions":{
				"EXT_texture_webp":{
					"source":0
				}
			},
			"sampler":0,
			"source":1
		}
	],
	"images":[
		{
			"mimeType":"image/webp",
			"name":"textura_modelo_token_santacloud",
			"uri":"text/textura_modelo_token_santacloud.webp"
		},
		{
			"mimeType":"image/jpeg",
			"name":"textura_modelo_token_santacloud",
			"uri":"text/textura_modelo_token_santacloud.jpg"
		}
	],
	"accessors":[
		{
			"bufferView":0,
			"componentType":5126,
			"count":21848,
			"max":[
				3.424562692642212,
				5.53907585144043,
				2.3231313228607178
			],
			"min":[
				-3.7140793800354004,
				-5.835174560546875,
				-2.7521257400512695
			],
			"type":"VEC3"
		},
		{
			"bufferView":1,
			"componentType":5126,
			"count":21848,
			"type":"VEC3"
		},
		{
			"bufferView":2,
			"componentType":5126,
			"count":21848,
			"type":"VEC2"
		},
		{
			"bufferView":3,
			"componentType":5123,
			"count":108534,
			"type":"SCALAR"
		}
	],
	"bufferViews":[
		{
			"buffer":0,
			"byteLength":262176,
			"byteOffset":0,
			"target":34962
		},
		{
			"buffer":0,
			"byteLength":262176,
			"byteOffset":262176,
			"target":34962
		},
		{
			"buffer":0,
			"byteLength":174784,
			"byteOffset":524352,
			"target":34962
		},
		{
			"buffer":0,
			"byteLength":217068,
			"byteOffset":699136,
			"target":34963
		}
	],
	"samplers":[
		{
			"magFilter":9729,
			"minFilter":9987
		}
	],
	"buffers":[
		{
			"byteLength":916204,
			"uri":"santacloud_token.bin"
		}
	]
}
